<svg viewBox="0 0 185 69" xmlns="http://www.w3.org/2000/svg" fill-rule="evenodd" clip-rule="evenodd" stroke-linejoin="round" stroke-miterlimit="2"><path d="M143.816 69.216c2.97 0 4.536-1.53 4.536-4.644V56.4h-7.326v2.34h4.428v5.994c0 1.386-.612 2.088-1.782 2.088-.9 0-1.656-.468-2.34-1.386l-1.62 1.944c.918 1.188 2.412 1.836 4.104 1.836zM155.664 69.144c3.078 0 5.31-2.07 5.31-4.986s-2.232-4.986-5.31-4.986c-3.078 0-5.328 2.07-5.328 4.986s2.25 4.986 5.328 4.986zm0-2.304c-1.404 0-2.484-1.008-2.484-2.682s1.08-2.682 2.484-2.682 2.466 1.008 2.466 2.682-1.062 2.682-2.466 2.682zM168.591 59.172c-1.206 0-2.196.378-2.916 1.17v-4.698h-2.808V69h2.682v-1.116c.702.846 1.746 1.26 3.042 1.26 2.718 0 4.824-1.944 4.824-4.986s-2.106-4.986-4.824-4.986zm-.486 7.668c-1.404 0-2.466-1.008-2.466-2.682s1.062-2.682 2.466-2.682c1.404 0 2.466 1.008 2.466 2.682s-1.062 2.682-2.466 2.682zM178.567 69.144c2.898 0 4.572-1.278 4.572-3.078 0-3.816-5.85-2.214-5.85-3.87 0-.504.54-.9 1.8-.9.882 0 1.836.18 2.79.72l.936-1.998c-.918-.54-2.394-.846-3.726-.846-2.826 0-4.482 1.296-4.482 3.132 0 3.87 5.85 2.25 5.85 3.834 0 .54-.486.882-1.782.882-1.188 0-2.502-.378-3.366-.936l-.936 2.016c.9.594 2.556 1.044 4.194 1.044z" fill="#f08576" fill-rule="nonzero"/><g><path d="M1513.71 1483.12c-22.8 23.6-45.19 47.62-68.4 70.82l-68.4-70.82 26.79-46.4h83.22c8.93 15.46 17.86 30.93 26.79 46.4zm-96.16-22.4l-10.81 18.73 38.57 39.94 38.57-39.94-10.81-18.73h-55.52z" fill="url(#_Linear1)" fill-rule="nonzero" transform="matrix(-.23363 0 0 .23363 380.31 -317.925)"/><path d="M349.909 364.658l38.574 39.942 38.573-39.942.044.071c7.574 13.118 5.094 29.31-5.02 39.628l-.032.036-33.565 34.756c-23.209-23.209-45.601-47.219-68.402-70.829l23.994-41.559c-6.668 11.839-4.941 27.142 5.132 37.215.214.214.449.44.704.678l-.002.004zm-5.465-38.535l-.041.071.041-.071zm7.802-4.201h-5.376l-1.876 3.248 1.876-3.248h5.376z" fill="url(#_Linear2)" fill-rule="nonzero" transform="matrix(.23363 0 0 .23363 -48.125 -57.472)"/><path d="M1376.64 1389.88c2.17-1.58 4.39-3.09 6.67-4.51 8.89-5.55 18.53-9.82 28.57-12.77 1.54-.47 2.78-.83 2.82-.84 10.02-2.71 20.4-4.05 30.79-4.04 14.78-.04 29.6 2.66 43.47 8.22.28.11.55.22.82.34 3.63 1.46 7.19 3.12 10.65 4.96 32.32 17.21 55.74 50.11 60.99 86.79 5.42 37.85-8.81 77.96-37.68 103.93-36.51 32.85-94.06 39.79-138.05 13.44-1.84-1.1-3.2-2.05-5.35-3.38 0 0-2.41-1.57-4.35-2.73-17.17-10.27-37.01-15.91-56.85-16.41h-20.9v-40.09c16.06-3.87 29.48-18.29 30.4-35.94-.01-.75 0-78.83 0-78.83.84-18.07-12.32-35.56-30.4-39.87v-40.07c10.17-.01 20.35-.02 30.52.01 22.34 0 44.32 10.61 59.12 27.55-7.54 3.38-14.78 7.4-21.61 12.01-5.14-5.14-11.29-9.28-18.21-11.95-6.25-2.41-12.99-3.63-19.67-3.61h-6.29c19.06 11.51 31.46 33.76 30.53 56.74l.01-.24c-.01 38.48-.05 79.83-.05 79.83-1.19 20.4-12.73 39.71-30.42 50.42l-.2.12c.3.01.59.02.89.04 25.07 1.19 49.33 9.03 70.11 22.61 0 0 3.99 2.67 7.58 4.66 28.93 16.12 66.45 15.19 94.66-2.69 31.13-19.73 48.82-58.85 41.79-96.18-5.96-31.65-29.44-59.18-59.88-70.3-.3-.11-.61-.21-.91-.32-32.56-11.42-71.08-3.07-95.97 21.37a98.411 98.411 0 00-3.62 3.75c.01-9.3.02-20.19.02-32.02z" fill="url(#_Linear3)" fill-rule="nonzero" transform="scale(.23363) rotate(-15 -4354.969 5599.836)"/><path d="M395.262 276.742c-34.276-2.438-69.109 15.578-86.767 45.512a90.751 90.751 0 00-2.507 4.542c6.7-32.92 31.353-60.926 65.983-70.205 14.437-3.869 29.001-4.051 42.689-1.125.156-.004.283.006.381.028 35.672 8.262 66.816 33.971 81.378 68.04 15.031 35.164 11.666 77.59-9.498 110.143-16.692 25.676-43.889 43.742-73.955 50.295l-.004.002-.44.095.444-.097c52.665-17.125 83.313-72.778 68.814-126.891a105.93 105.93 0 00-2.076-6.823 89.873 89.873 0 00-7.039-21.008c-13.949-29.03-43.753-49.542-76.034-52.41a85.9 85.9 0 01-.966-.068l-.403-.03z" fill="url(#_Linear4)" fill-rule="nonzero" transform="matrix(.23363 0 0 .23363 -48.125 -57.472)"/><path d="M139.75 45.15h-5.608V17.771h5.608v27.377zm31.668-27.408c4.946.046 9.727 2.955 12.028 7.312 1.972 3.734 2.077 8.406.26 12.236-2.561 5.394-8.872 8.754-14.965 7.586-5.586-1.073-10.224-5.972-10.978-11.616-.577-4.32 1.049-8.874 4.245-11.85 2.483-2.311 5.836-3.636 9.235-3.668h.175zm-84.535 2.651c2.836-2.053 6.444-3.025 9.955-2.507 4.308.636 8.275 3.376 10.287 7.26 1.986 3.831 2.016 8.62.06 12.461-3.42 6.72-12.833 9.843-19.683 5.238-.21-.142-.416-.29-.619-.441v2.72h-5.607V8.617h5.607v11.775zm39.669-2.651c1.15.014 2.294.18 3.404.48l.051.015-1.448 5.409a6.248 6.248 0 00-.888-.2c-4.379-.712-9.145 2.95-9.266 7.596-.007.267-.003.54-.017.753v13.324h-5.607V17.742h5.607v2.642a14.053 14.053 0 017.988-2.642h.176zm24.39 18.207s-.001 1.009.445 1.773c.782 1.336 2.486 2.037 3.993 1.645l1.443 5.385c-2.462.656-5.165.32-7.308-1.107-2.528-1.685-4.14-4.661-4.18-7.696V8.614h5.608v27.335zm20.336-12.6c-3.584.035-6.976 2.687-7.81 6.205-.643 2.7.224 5.71 2.22 7.659 2.224 2.172 5.747 2.908 8.693 1.705 2.572-1.051 4.518-3.504 4.939-6.252.668-4.364-2.764-8.974-7.413-9.298a9.407 9.407 0 00-.629-.02zm-76.365.004c-4.353.054-8.434 4.012-7.972 8.657.398 3.971 3.93 7.506 8.016 7.506 4.131.003 8.058-3.663 8.08-7.904.02-4.205-3.65-8.221-8.019-8.259h-.105zm44.834-9.107h-5.607V8.644h5.607v5.602z" fill="#00065b" fill-rule="nonzero"/></g><defs><linearGradient id="_Linear1" x1="0" y1="0" x2="1" y2="0" gradientUnits="userSpaceOnUse" gradientTransform="scale(-54.3129 54.3129) rotate(-25.003 47.8 75.44)"><stop offset="0" stop-color="#009e67"/><stop offset="1" stop-color="#02eb81"/></linearGradient><linearGradient id="_Linear2" x1="0" y1="0" x2="1" y2="0" gradientUnits="userSpaceOnUse" gradientTransform="scale(-59.8804) rotate(-27.935 -16.334 11.384)"><stop offset="0" stop-color="#009e67"/><stop offset="1" stop-color="#01d684"/></linearGradient><linearGradient id="_Linear3" x1="0" y1="0" x2="1" y2="0" gradientUnits="userSpaceOnUse" gradientTransform="scale(-122.968) rotate(-61.972 -15.357 4.116)"><stop offset="0" stop-color="#3f99fe"/><stop offset="1" stop-color="#264afb"/></linearGradient><linearGradient id="_Linear4" x1="0" y1="0" x2="1" y2="0" gradientUnits="userSpaceOnUse" gradientTransform="scale(-212.176) rotate(41.503 1.942 -3.864)"><stop offset="0" stop-color="#3477fd"/><stop offset=".07" stop-color="#3b8bfe"/><stop offset=".14" stop-color="#419dff"/><stop offset=".37" stop-color="#43a4ff"/><stop offset=".73" stop-color="#44a8ff"/><stop offset="1" stop-color="#264afb"/></linearGradient></defs></svg>